<svg width="172" height="140" viewBox="0 0 172 140" fill="none" xmlns="http://www.w3.org/2000/svg">
<g clip-path="url(#clip0_115_144)">
<path d="M152.31 111.725C150.791 105.267 149.303 99.0744 147.844 92.8822C147.546 91.6486 147.337 90.7778 147.278 89.1814C147.218 87.9962 147.159 85.4807 148.737 85.6983C150.017 85.9886 150.881 86.3272 151.655 88.4316C153.62 93.8739 154.573 99.5097 155.556 105.097C156.419 110.032 156.985 113.805 157.432 118.207C157.64 120.263 156.39 121.086 154.067 120.844C151.983 120.626 149.839 120.432 147.844 119.9C140.637 118.014 133.521 115.982 126.344 113.998C125.451 113.757 124.736 113.611 123.724 113.2C122.503 112.692 121.58 112.378 121.937 111.338C122.265 110.346 124.051 110.394 124.945 110.564C132.449 111.846 147.873 114.7 148.737 114.7C146.236 111.531 144.002 108.556 141.561 105.678C124.439 85.6983 105.709 66.88 81.7083 51.9076C62.7104 40.0554 42.313 30.2351 20.0694 22.9786C18.7592 22.5433 17.4788 22.0111 16.2579 21.479C14.5904 20.7775 13.8757 20.1728 14.2628 19.4472C15.2157 18.1652 16.4961 18.4071 17.5383 18.528C19.6227 18.7457 21.6773 19.3262 23.6724 19.8826C50.2635 27.5502 73.5493 39.741 94.9591 54.4715C116.935 69.5891 133.848 88.0688 148.886 107.782C149.63 108.846 151.774 111.338 152.31 111.725Z" fill="#FF8A25"/>
</g>
<defs>
<clipPath id="clip0_115_144">
<rect width="139.323" height="171.517" fill="white" transform="translate(171.517) rotate(90)"/>
</clipPath>
</defs>
</svg>
