<svg width="71" height="105" viewBox="0 0 71 105" fill="none" xmlns="http://www.w3.org/2000/svg">
<g clip-path="url(#clip0_140_70)">
<path d="M17.7536 105C27.5496 105 35.5 97.16 35.5 87.5V70H17.7536C7.95751 70 0.00710011 77.84 0.00710011 87.5C0.00710011 97.16 7.95751 105 17.7536 105Z" fill="#0ACF83"/>
<path d="M0.00710011 52.5C0.00710011 42.84 7.95751 35 17.7536 35H35.5V70H17.7536C7.95751 70 0.00710011 62.16 0.00710011 52.5Z" fill="#A259FF"/>
<path d="M0.00728893 17.5C0.00728893 7.84 7.9577 0 17.7537 0H35.5002V35H17.7537C7.9577 35 0.00728893 27.16 0.00728893 17.5Z" fill="#F24E1E"/>
<path d="M35.5 0H53.2465C63.0425 0 70.9929 7.84 70.9929 17.5C70.9929 27.16 63.0425 35 53.2465 35H35.5V0Z" fill="#FF7262"/>
<path d="M70.9929 52.5C70.9929 62.16 63.0425 70 53.2465 70C43.4504 70 35.5 62.16 35.5 52.5C35.5 42.84 43.4504 35 53.2465 35C63.0425 35 70.9929 42.84 70.9929 52.5Z" fill="#1ABCFE"/>
</g>
<defs>
<clipPath id="clip0_140_70">
<rect width="71" height="105" fill="white"/>
</clipPath>
</defs>
</svg>
