<svg width="108" height="107" viewBox="0 0 108 107" fill="none" xmlns="http://www.w3.org/2000/svg">
<path d="M3.08653 38.2498C3.08653 38.2498 0.529936 36.3906 3.59785 33.9079L10.7457 27.4596C10.7457 27.4596 12.7909 25.2886 14.9534 27.1801L80.9135 77.5634V101.723C80.9135 101.723 80.8815 105.517 76.056 105.098L3.08653 38.2498Z" fill="#2489CA"/>
<path d="M20.0878 53.8223L3.08651 69.4166C3.08651 69.4166 1.3395 70.7278 3.08651 73.0707L10.98 80.3143C10.98 80.3143 12.8548 82.3456 15.6245 80.0349L33.6484 66.2461L20.0878 53.8223Z" fill="#1070B3"/>
<path d="M49.9361 53.951L81.1159 29.9308L80.9135 5.89989C80.9135 5.89989 79.5819 0.655216 75.1398 3.38503L33.6485 41.4842L49.9361 53.951Z" fill="#0877B9"/>
<path d="M76.0559 105.13C77.8669 107 80.0613 106.388 80.0613 106.388L104.36 94.3078C107.47 92.1691 107.033 89.5145 107.033 89.5145V17.3787C107.033 14.2083 103.816 13.1121 103.816 13.1121L82.7563 2.86991C78.1545 0.0003829 75.1398 3.38578 75.1398 3.38578C75.1398 3.38578 79.0173 0.56999 80.9135 5.90064V101.283C80.9135 101.938 80.775 102.583 80.498 103.164C79.9441 104.292 78.7404 105.345 75.8535 104.905L76.0559 105.13Z" fill="#3C99D4"/>
</svg>
