<svg width="110" height="107" viewBox="0 0 110 107" fill="none" xmlns="http://www.w3.org/2000/svg">
<g clip-path="url(#clip0_140_81)">
<path d="M19.4792 0.0107422H90.5208C101.292 0.0107422 110 8.69699 110 19.4405V87.559C110 98.3026 101.292 106.989 90.5208 106.989H19.4792C8.70833 106.989 0 98.3026 0 87.559V19.4405C0 8.69699 8.70833 0.0107422 19.4792 0.0107422Z" fill="#470137"/>
<path d="M57.8417 28.1273L44.0917 50.7573L58.7583 74.7587C58.85 74.9416 58.8958 75.1245 58.85 75.3073C58.8042 75.4902 58.6208 75.3531 58.3458 75.3988H47.85C47.1167 75.3988 46.6125 75.3531 46.2917 74.8959C45.3292 72.9758 44.3208 71.1014 43.3583 69.1813C42.3958 67.3069 41.3417 65.3867 40.2417 63.4209C39.1417 61.4551 38.0417 59.4892 36.9417 57.4777H36.85C35.8875 59.4435 34.8333 61.4093 33.7792 63.3752C32.725 65.341 31.6708 67.3068 30.6625 69.227C29.6083 71.1471 28.5542 73.1129 27.5 74.9873C27.3167 75.4445 26.95 75.4902 26.4458 75.4902H16.3625C16.1792 75.4902 16.0417 75.5816 16.0417 75.3531C15.9958 75.1702 16.0417 74.9873 16.1333 74.8502L30.3875 51.5344L16.5 28.0816C16.3625 27.8987 16.3167 27.7158 16.4083 27.6244C16.5 27.4872 16.6833 27.4415 16.8667 27.4415H27.2708C27.5 27.4415 27.7292 27.4872 27.9125 27.533C28.0958 27.6244 28.2333 27.7615 28.3708 27.9444C29.2417 29.9102 30.25 31.8761 31.3042 33.8419C32.4042 35.8078 33.4583 37.7279 34.6042 39.648C35.7042 41.5681 36.7125 43.4882 37.675 45.4541H37.7667C38.7292 43.4425 39.7375 41.4767 40.7458 39.5566C41.7542 37.6364 42.8083 35.7163 43.8625 33.7962C44.9167 31.8761 45.925 29.9102 46.9333 28.0358C46.9792 27.853 47.0708 27.6701 47.2083 27.5787C47.3917 27.4872 47.575 27.4415 47.8042 27.4872H57.475C57.7042 27.4415 57.9333 27.5787 57.9792 27.8073C58.025 27.853 57.9333 28.0358 57.8417 28.1273ZM79.0167 76.3588C75.625 76.4046 72.2333 75.7188 69.1625 74.3016C66.275 72.9758 63.8917 70.7813 62.2417 68.084C60.5458 65.2953 59.7208 61.8208 59.7208 57.6605C59.675 54.2775 60.5458 50.9401 62.2417 48.0142C63.9833 45.0426 66.5042 42.5739 69.5292 40.9281C72.7375 39.1451 76.5875 38.2765 81.125 38.2765C81.3542 38.2765 81.675 38.2765 82.0875 38.3222C82.5 38.3679 82.9583 38.3679 83.5083 38.4136V23.967C83.5083 23.647 83.6458 23.4641 83.9667 23.4641H93.2708C93.5 23.4184 93.6833 23.6013 93.7292 23.7842V67.3983C93.7292 68.2212 93.775 69.1355 93.8208 70.1413C93.9125 71.1014 93.9583 72.0157 94.0042 72.7929C94.0042 73.1129 93.8667 73.3872 93.5458 73.5244C91.1625 74.5302 88.6417 75.2616 86.075 75.7188C83.7375 76.1303 81.4 76.3588 79.0167 76.3588ZM83.5083 67.2154V47.0999C83.0958 47.0084 82.6833 46.917 82.2708 46.8713C81.7667 46.8256 81.2625 46.7799 80.7583 46.7799C78.9708 46.7799 77.1833 47.1456 75.5792 47.9685C74.0208 48.7457 72.6917 49.8886 71.6833 51.3516C70.675 52.8145 70.1708 54.7804 70.1708 57.1576C70.125 58.7578 70.4 60.3578 70.95 61.8665C71.4083 63.1009 72.0958 64.1981 73.0125 65.1124C73.8833 65.9353 74.9375 66.5754 76.1292 66.9411C77.3667 67.3526 78.65 67.5354 79.9333 67.5354C80.6208 67.5354 81.2625 67.4897 81.8583 67.444C82.4542 67.4897 82.9583 67.3983 83.5083 67.2154Z" fill="#FF61F6"/>
</g>
<defs>
<clipPath id="clip0_140_81">
<rect width="110" height="107" fill="white"/>
</clipPath>
</defs>
</svg>
